<?xml version="1.0" encoding="UTF-8" standalone="no"?>
<!DOCTYPE svg PUBLIC "-//W3C//DTD SVG 1.1//EN" "http://www.w3.org/Graphics/SVG/1.1/DTD/svg11.dtd">
<svg width="100%" height="100%" viewBox="0 0 361 361" version="1.1" xmlns="http://www.w3.org/2000/svg" xmlns:xlink="http://www.w3.org/1999/xlink" xml:space="preserve" xmlns:serif="http://www.serif.com/" style="fill-rule:evenodd;clip-rule:evenodd;stroke-linejoin:round;stroke-miterlimit:2;">
    <g>
        <path d="M360,112.61C360,108.31 360,104.01 359.98,99.71C359.96,96.09 359.92,92.47 359.82,88.85C359.61,80.96 359.14,73.01 357.74,65.21C356.32,57.29 353.99,49.92 350.33,42.72C346.73,35.65 342.03,29.19 336.42,23.58C330.81,17.97 324.34,13.27 317.27,9.67C310.08,6.01 302.71,3.69 294.8,2.26C287,0.86 279.04,0.39 271.15,0.18C267.53,0.08 263.91,0.04 260.29,0.02C255.99,0 251.69,0 247.39,0L112.61,0C108.31,0 104.01,0 99.71,0.02C96.09,0.04 92.47,0.08 88.85,0.18C80.96,0.4 73,0.86 65.2,2.27C57.28,3.69 49.92,6.02 42.73,9.68C35.66,13.28 29.19,17.98 23.58,23.59C17.97,29.2 13.27,35.66 9.67,42.73C6.01,49.93 3.68,57.3 2.26,65.22C0.86,73.02 0.39,80.98 0.18,88.86C0.08,92.48 0.04,96.1 0.02,99.72C0,104.01 0,108.31 0,112.61L0,247.38C0,251.68 0,255.98 0.02,260.28C0.04,263.9 0.08,267.52 0.18,271.14C0.39,279.03 0.86,286.98 2.26,294.78C3.68,302.7 6.01,310.07 9.67,317.27C13.27,324.34 17.97,330.8 23.58,336.41C29.19,342.02 35.66,346.72 42.73,350.32C49.92,353.98 57.29,356.3 65.2,357.73C73,359.13 80.96,359.6 88.85,359.81C92.47,359.91 96.09,359.95 99.71,359.97C104.01,360 108.31,359.99 112.61,359.99L247.38,359.99C251.68,359.99 255.98,359.99 260.28,359.97C263.9,359.95 267.52,359.91 271.14,359.81C279.03,359.6 286.99,359.13 294.79,357.73C302.71,356.31 310.07,353.98 317.26,350.32C324.33,346.72 330.8,342.02 336.41,336.41C342.02,330.8 346.72,324.34 350.32,317.27C353.98,310.07 356.31,302.7 357.73,294.78C359.13,286.98 359.6,279.02 359.81,271.14C359.91,267.52 359.95,263.9 359.97,260.28C360,255.98 359.99,251.68 359.99,247.38L359.99,112.61L360,112.61Z" style="fill:url(#_Linear1);"/>
    </g>
    <g id="Glyph_2_">
        <g>
            <path d="M141.27,171.003L141.27,258.96C141.27,263.52 141.04,267.65 140.08,272.22C139.15,276.65 137.46,280.82 134.84,284.57C132.23,288.31 128.89,291.38 124.99,293.68C121.05,296.01 116.91,297.4 112.49,298.29C104.19,299.97 98.51,300.34 93.18,299.27C88.04,298.24 83.68,295.81 80.19,292.61C75.02,287.88 72.01,281.48 71.31,274.79C70.49,266.95 72.88,258.58 78.77,252.41C81.74,249.29 85.47,246.83 90.45,244.9C95.66,242.88 101.41,241.67 110.25,239.89L117.24,238.48C120.31,237.86 122.93,237.08 125.05,234.49C127.17,231.9 127.42,228.86 127.42,225.73L127.42,171.003L141.27,171.003ZM249.66,152.243L263.52,152.243L263.52,234.27C263.52,238.83 263.48,242.96 262.52,247.53C261.59,251.96 259.9,256.13 257.28,259.88C254.67,263.62 251.33,266.69 247.43,268.99C243.49,271.32 239.35,272.65 234.93,273.54C226.63,275.21 220.95,275.59 215.62,274.52C210.48,273.48 206.12,271.12 202.63,267.92C197.46,263.19 194.24,256.79 193.54,250.1C192.72,242.26 195.32,233.89 201.21,227.72C204.18,224.6 207.91,222.14 212.89,220.21C218.1,218.19 223.85,216.98 232.69,215.2L239.68,213.79C242.75,213.17 245.37,212.39 247.49,209.8C249.63,207.2 249.66,204.02 249.66,200.88L249.66,152.243Z" style="fill:white;"/>
        </g>
    </g>
    <g transform="matrix(-0.260997,0,0,0.260997,319.123,-17.5275)">
        <path d="M730.88,732.845C724.666,743.814 712.555,749.299 700.763,747.654C697.155,747.151 693.543,745.962 690.163,744.042C624.08,706.431 552.054,681.936 476.1,671.242C400.145,660.548 324.145,664.251 250.248,682.211C234.206,686.094 218.074,676.268 214.19,660.228C210.305,644.188 220.131,628.053 236.171,624.17C317.428,604.428 400.968,600.359 484.417,612.105C567.866,623.85 647.02,650.768 719.729,692.128C734.035,700.308 739.06,718.496 730.926,732.845L730.88,732.845ZM796.598,601.593C786.406,620.422 762.826,627.462 743.998,617.27C666.672,575.453 582.949,547.987 495.157,535.647C407.365,523.31 319.348,526.644 233.475,545.519C228.814,546.525 224.198,546.707 219.719,546.067C204.135,543.873 190.791,532.267 187.226,515.95C182.61,495.022 195.864,474.319 216.795,469.701C311.713,448.816 409.011,445.116 505.988,458.733C602.92,472.353 695.463,502.699 780.923,548.947C799.798,559.139 806.789,582.673 796.598,601.548L796.598,601.593ZM869.447,453.661C859.849,472.124 839.878,481.676 820.409,478.933C815.152,478.202 809.989,476.556 805.006,473.999C714.978,427.156 618,396.215 516.774,382.001C415.548,367.79 313.771,370.807 214.327,391.004C188.46,396.261 163.279,379.535 158.024,353.712C152.768,327.847 169.494,302.667 195.315,297.409C305.453,275.063 418.059,271.727 530.071,287.447C642.086,303.169 749.389,337.444 849.109,389.315C872.507,401.47 881.601,430.307 869.447,453.707L869.447,453.661Z" style="fill:white;"/>
    </g>
    <defs>
        <linearGradient id="_Linear1" x1="0" y1="0" x2="1" y2="0" gradientUnits="userSpaceOnUse" gradientTransform="matrix(2.14831e-14,-350.846,350.846,2.14831e-14,180,358.605)"><stop offset="0" style="stop-color:rgb(250,35,59);stop-opacity:1"/><stop offset="0.25" style="stop-color:rgb(250,35,59);stop-opacity:1"/><stop offset="0.75" style="stop-color:rgb(30,215,96);stop-opacity:1"/><stop offset="1" style="stop-color:rgb(30,215,96);stop-opacity:1"/></linearGradient>
    </defs>
</svg>
